<svg width="500" height="500" viewBox="0 0 500 500" fill="none" xmlns="http://www.w3.org/2000/svg">
<path d="M0 10.2566H102.921V500H0V10.2566Z" fill="white"/>
<path d="M132.823 10.2566H235.744V500H132.823V10.2566Z" fill="white"/>
<path d="M146.036 73.7729L183.414 36.2362L202.104 17.4678L210 10.4868L231 10.4868L240.221 21.8311L259.649 44.9627L298.505 91.226L376.217 183.753L312.938 264.479L146.036 73.7729Z" fill="white"/>
<path d="M401.5 10.4868L420.5 10.4869L430.045 18.5159L448.755 36.9331L486.175 73.7676L315.369 260.012L247.847 189.422L329.591 94.7602L370.463 47.4294L390.899 23.764L401.5 10.4868Z" fill="white"/>
<path d="M397.08 10.2566H500V500H397.08V10.2566Z" fill="white"/>
<path d="M0 396H369V500H0V396Z" fill="white"/>
</svg>
